<svg viewBox="0 0 24 24" fill="none" version="1.1" xmlns="http://www.w3.org/2000/svg">
<path d="M18.6637 14.669L16.9194 16.76L15.175 14.669L15.4878 14.2968L16.6991 15.7488V12.0078H17.1396V15.7488L18.351 14.2941L18.6637 14.669Z" />
<path d="M3.24015 19.1998L11.1219 9.21307L9.97251 7.73588L11.7131 8.47448C11.3929 8.88018 10.8756 8.88018 10.5554 8.47448L9.97251 7.73588C9.65232 7.33017 9.65232 6.67479 9.97251 6.26908L12.2878 3.30428C12.608 2.89857 13.1252 2.89857 13.4454 3.30428L14.0284 4.04288C14.3486 4.44859 14.3486 5.10397 14.0284 5.50968L13.4454 3.30428L14.6113 4.79188C14.9315 4.38617 15.4487 4.38617 15.7689 4.79188C16.0891 5.19759 16.0891 5.86337 15.7689 6.26908L16.9266 7.73588L15.186 6.99728C15.5062 6.59157 16.0316 6.59157 16.3518 6.99728L16.9266 7.73588C17.2468 8.14159 17.2468 8.80736 16.9266 9.21307L14.6113 12.1467C14.2911 12.5524 13.7656 12.5524 13.4454 12.1467L12.8707 11.4185C12.5423 11.0128 12.5423 10.347 12.8707 9.94127L13.4454 12.1467L12.2878 10.6799L4.39779 20.677C4.07759 21.0827 3.56035 21.0827 3.24015 20.677C2.91995 20.2712 2.91995 19.6055 3.24015 19.1998ZM19.358 17.8682C19.7935 17.8682 20.2111 18.0874 20.5191 18.4776C20.827 18.8678 21 19.397 21 19.9488V20.989H12.7898V19.9488C12.7898 19.397 12.9628 18.8678 13.2707 18.4776C13.5787 18.0874 13.9963 17.8682 14.4318 17.8682H19.358Z" />
</svg>
