<svg viewBox="0 0 38 38" fill="none" xmlns="http://www.w3.org/2000/svg">
<path d="M19 9C16.3478 9 13.8043 10.0536 11.9289 11.9289C10.0536 13.8043 9 16.3478 9 19C9 21.6522 10.0536 24.1957 11.9289 26.0711C13.8043 27.9464 16.3478 29 19 29C21.6522 29 24.1957 27.9464 26.0711 26.0711C27.9464 24.1957 29 21.6522 29 19C29 16.3478 27.9464 13.8043 26.0711 11.9289C24.1957 10.0536 21.6522 9 19 9ZM11.6667 15.6667H14.3333C14.687 15.6667 15.0261 15.8071 15.2761 16.0572C15.5262 16.3072 15.6667 16.6464 15.6667 17V18.3333C15.6667 19 15.16 19.5333 14.52 19.6267L16.08 22.3333H14.5333L13 19.6667V22.3333H11.6667V15.6667ZM18.3333 15.6667H21V17H18.3333V18.3333H21V19.6667H18.3333V21H21V22.3333H18.3333C17.9797 22.3333 17.6406 22.1929 17.3905 21.9428C17.1405 21.6928 17 21.3536 17 21V17C17 16.6464 17.1405 16.3072 17.3905 16.0572C17.6406 15.8071 17.9797 15.6667 18.3333 15.6667V15.6667ZM23.6667 15.6667H26.3333V17H23.6667V21H26.3333V22.3333H23.6667C23.313 22.3333 22.9739 22.1929 22.7239 21.9428C22.4738 21.6928 22.3333 21.3536 22.3333 21V17C22.3333 16.6464 22.4738 16.3072 22.7239 16.0572C22.9739 15.8071 23.313 15.6667 23.6667 15.6667V15.6667ZM13 17V18.3333H14.3333V17" />
</svg>
