<svg clip-rule="evenodd" fill-rule="evenodd" stroke-linejoin="round" stroke-miterlimit="1.41421" viewBox="0 0 560 400" xmlns="http://www.w3.org/2000/svg"><g fill-rule="nonzero" transform="matrix(.607592 0 0 .607592 -1087.082 48.1016)"><path d="m2250 496.877c-33.33 0-65.66-6.528-96.1-19.401-14.62-6.187-28.73-13.846-41.93-22.762-13.07-8.831-25.37-18.974-36.54-30.145s-21.31-23.464-30.14-36.536c-8.92-13.198-16.58-27.307-22.76-41.936-12.88-30.437-19.41-62.768-19.41-96.096s6.53-65.659 19.41-96.096c6.18-14.629 13.84-28.738 22.76-41.936 8.83-13.072 18.97-25.365 30.14-36.536s23.47-21.314 36.54-30.145c13.2-8.916 27.31-16.575 41.93-22.762 30.44-12.875 62.77-19.402 96.1-19.402s65.66 6.527 96.1 19.401c14.62 6.187 28.73 13.846 41.93 22.762 13.07 8.831 25.37 18.974 36.54 30.145s21.31 23.464 30.14 36.536c8.92 13.198 16.58 27.307 22.76 41.936 12.88 30.437 19.41 62.768 19.41 96.096s-6.53 65.659-19.41 96.096c-6.18 14.629-13.84 28.738-22.76 41.936-8.83 13.072-18.97 25.365-30.14 36.536-11.17 11.172-23.47 21.314-36.54 30.145-13.2 8.916-27.31 16.575-41.93 22.762-30.44 12.874-62.77 19.402-96.1 19.402zm0-491.694c-33.05 0-65.11 6.473-95.29 19.238-14.51 6.136-28.5 13.73-41.59 22.572-12.96 8.758-25.15 18.816-36.23 29.895s-21.14 23.269-29.9 36.233c-8.84 13.088-16.43 27.079-22.57 41.585-12.76 30.182-19.24 62.243-19.24 95.293 0 33.051 6.48 65.112 19.24 95.294 6.14 14.506 13.73 28.498 22.57 41.585 8.76 12.964 18.82 25.154 29.9 36.233s23.27 21.137 36.23 29.895c13.09 8.842 27.08 16.436 41.59 22.572 30.18 12.766 62.24 19.238 95.29 19.238s65.11-6.473 95.29-19.238c14.51-6.136 28.5-13.73 41.59-22.572 12.96-8.758 25.15-18.816 36.23-29.895s21.14-23.269 29.9-36.233c8.84-13.088 16.43-27.079 22.57-41.585 12.76-30.182 19.24-62.243 19.24-95.294s-6.48-65.112-19.24-95.293c-6.14-14.506-13.73-28.498-22.57-41.585-8.76-12.964-18.82-25.154-29.9-36.233s-23.27-21.137-36.23-29.895c-13.09-8.842-27.08-16.436-41.59-22.572-30.18-12.765-62.24-19.238-95.29-19.238z" fill="#ffce45"/><path d="m2250 57.585 188.33 188.326-188.33 188.327-188.32-188.327z" fill="#ffce45"/><path d="m2250 307.365-188.48-61.462 188.48-188.323 188.48 188.323z" fill="#febe44"/><path d="m2127.08 233.611h86.04l36.88-40.975 40.97 40.974h86.05l-127.02-137.26z" fill="#fff"/><path d="m2250 434.226v-376.646l188.32 188.323z" fill="#d9a547" fill-opacity=".42"/></g></svg>