<svg version="1.1" xmlns="http://www.w3.org/2000/svg" viewBox="0 0 486 486" >
			<path d="M243,0C108.8,0,0,108.8,0,243s108.8,243,243,243s243-108.8,243-243S377.2,0,243,0z M312.8,338.8
				c-10.6,12.9-24.4,21.6-40.5,26c-7,1.9-10.2,5.6-9.8,12.9c0.3,7.2,0,14.3-0.1,21.5c0,6.4-3.3,9.8-9.6,10
				c-4.1,0.1-8.2,0.2-12.3,0.2c-3.6,0-7.2,0-10.8-0.1c-6.8-0.1-10-4-10-10.6c-0.1-5.2-0.1-10.5-0.1-15.7c-0.1-11.6-0.5-12-11.6-13.8
				c-14.2-2.3-28.2-5.5-41.2-11.8c-10.2-5-11.3-7.5-8.4-18.3c2.2-8,4.4-16,6.9-23.9c1.8-5.8,3.5-8.4,6.6-8.4c1.8,0,4.1,0.9,7.2,2.5
				c14.4,7.5,29.7,11.7,45.8,13.7c2.7,0.3,5.4,0.5,8.1,0.5c7.5,0,14.8-1.4,21.9-4.5c17.9-7.8,20.7-28.5,5.6-40.9
				c-5.1-4.2-11-7.3-17.1-10c-15.7-6.9-32-12.1-46.8-21c-24-14.4-39.2-34.1-37.4-63.3c2-33,20.7-53.6,51-64.6
				c12.5-4.5,12.6-4.4,12.6-17.4c0-4.4-0.1-8.8,0.1-13.3c0.3-9.8,1.9-11.5,11.7-11.8c1.1,0,2.3,0,3.4,0c1.9,0,3.8,0,5.7,0
				c0.8,0,1.6,0,2.3,0c18.6,0,18.6,0.8,18.7,20.9c0.1,14.8,0.1,14.8,14.8,17.1c11.3,1.8,22,5.1,32.4,9.7c5.7,2.5,7.9,6.5,6.1,12.6
				c-2.6,9-5.1,18.1-7.9,27c-1.8,5.4-3.5,7.9-6.7,7.9c-1.8,0-4-0.7-6.8-2.1c-14.4-7-29.5-10.4-45.3-10.4c-2,0-4.1,0.1-6.1,0.2
				c-4.7,0.3-9.3,0.9-13.7,2.8c-15.6,6.8-18.1,24-4.8,34.6c6.7,5.4,14.4,9.2,22.3,12.5c13.8,5.7,27.6,11.2,40.7,18.4
				C330.9,250.9,342.1,303.2,312.8,338.8z"/>
</svg>
