<svg version="1.1" xmlns="http://www.w3.org/2000/svg" viewBox="0 0 512 512" >
		<g>
			<path d="M256,298.667c88.542,0,256-13.375,256-64c0-42.073-114.292-56.311-172.559-60.846
				c-9.091-18.943-51.889-23.272-72.775-24.216V74.667C266.667,68.771,261.896,64,256,64s-10.667,4.771-10.667,10.667v74.938
				c-20.885,0.944-63.684,5.273-72.775,24.216C114.292,178.355,0,192.594,0,234.667C0,285.292,167.458,298.667,256,298.667z"/>
			<path d="M489.167,291.146c-2.792-1.542-6.167-1.708-9.104-0.542C419.75,314.896,324.938,320,256,320
				s-163.75-5.104-224.063-29.396c-2.938-1.167-6.313-1-9.104,0.542C7.688,299.448,0,309.156,0,320
				c0,48.693,154.723,62.885,245.333,63.901v53.432c0,5.896,4.771,10.667,10.667,10.667s10.667-4.771,10.667-10.667v-53.432
				C357.277,382.885,512,368.693,512,320C512,309.156,504.313,299.448,489.167,291.146z"/>
		</g>
</svg>
