<svg version="1.1" xmlns="http://www.w3.org/2000/svg" viewBox="0 0 477.867 477.867" >
	<g>
		<path d="M409.6,0H68.267C30.564,0,0,30.564,0,68.267V409.6c0,37.703,30.564,68.267,68.267,68.267H409.6
			c37.703,0,68.267-30.564,68.267-68.267V68.267C477.867,30.564,447.303,0,409.6,0z M426.667,273.067h-55.569L323.55,431.582
			c-2.17,7.216-8.815,12.154-16.35,12.151c-0.444,0-0.904,0-1.348,0c-8.015-0.627-14.505-6.762-15.582-14.729l-38.298-281.003
			l-47.565,214.101c-2.026,9.205-11.13,15.026-20.336,13c-6.212-1.367-11.148-6.075-12.808-12.215L133.461,224.29l-15.206,38.059
			c-2.596,6.478-8.876,10.723-15.855,10.718H51.2c-9.426,0-17.067-7.641-17.067-17.067c0-9.426,7.641-17.067,17.067-17.067h39.646
			l29.833-74.598c3.489-8.756,13.416-13.026,22.172-9.537c4.985,1.986,8.746,6.202,10.153,11.38l33.041,121.173l53.282-239.838
			c1.619-8.192,9.058-13.915,17.391-13.38c8.257,0.346,15.08,6.557,16.196,14.746l40.55,297.574l28.587-95.266
			c2.133-7.256,8.787-12.243,16.35-12.254h68.267c9.426,0,17.067,7.641,17.067,17.067
			C443.733,265.426,436.092,273.067,426.667,273.067z"/>
	</g>
</svg>
