<svg viewBox="0 0 511.999 511.999" version="1.1" xmlns="http://www.w3.org/2000/svg"><g><path d="m255.998 104.999c-83.262 0-151 67.738-151 151s67.738 151 151 151 151-67.738 151-151-67.738-151-151-151zm-30 74.331c-8.284 0-15-6.716-15-15s6.716-15 15-15h60c8.284 0 15 6.716 15 15s-6.716 15-15 15zm83.711 175.38c-24.813 0-45-20.187-45-45s20.187-45 45-45 45 20.187 45 45-20.187 45-45 45z"/><circle cx="309.709" cy="309.71" r="15"/><path d="m496.999 240.999h-.476c-3.279-53.755-24.15-104.14-59.842-144.47l.337-.336c5.858-5.858 5.858-15.355 0-21.213-5.857-5.858-15.355-5.858-21.213 0l-.337.336c-40.33-35.692-90.715-56.563-144.471-59.842v-.474c0-8.284-6.716-15-15-15s-15 6.716-15 15v.474c-53.756 3.279-104.141 24.149-144.471 59.842l-.335-.335c-5.858-5.858-15.356-5.857-21.213 0-5.857 5.858-5.857 15.355 0 21.213l.335.335c-35.692 40.33-56.563 90.715-59.842 144.471h-.471c-8.285 0-15 6.716-15 15s6.716 15 15 15h.472c3.363 55.122 25.216 106.705 62.586 147.531l-31.742 63.468h-10.73c-8.284 0-15 6.716-15 15s6.716 15 15 15h20c5.681 0 10.875-3.209 13.416-8.29l31.71-63.404c39.605 33.483 88.374 53.054 140.286 56.221v.474c0 8.284 6.716 15 15 15s15-6.716 15-15v-.474c51.912-3.167 100.682-22.739 140.287-56.222l31.712 63.406c2.541 5.081 7.734 8.29 13.416 8.29h20c8.284 0 15-6.716 15-15s-6.716-15-15-15h-10.73l-31.744-63.47c37.37-40.826 59.223-92.408 62.586-147.53h.476c8.284 0 15-6.716 15-15-.002-8.285-6.718-15.001-15.002-15.001zm-241.001 196.001c-99.804 0-181-81.196-181-181s81.196-181 181-181 181 81.196 181 181-81.196 181-181 181z"/></g></svg>