<svg fill="none" viewBox="0 0 24 24" version="1.1" xmlns="http://www.w3.org/2000/svg"><path d="m21.75 10.5c0 3.1144-1.4602 5.8878-3.7334 7.6728l1.6074 2.4112c.2298.3446.1367.8103-.208 1.04-.3446.2298-.8103.1367-1.04-.208l-1.6068-2.4101c-1.2045.6769-2.5674 1.1052-4.0192 1.2157v1.0284h1.25c.4142 0 .75.3358.75.75s-.3358.75-.75.75h-4c-.41421 0-.75-.3358-.75-.75s.33579-.75.75-.75h1.25v-1.0284c-1.45177-.1105-2.81467-.5388-4.01923-1.2157l-1.60673 2.4101c-.22977.3447-.69542.4378-1.04007.208-.34464-.2297-.43777-.6954-.20801-1.04l1.60747-2.4112c-2.27318-1.785-3.73343-4.5584-3.73343-7.6728 0-5.38478 4.36522-9.75 9.75-9.75 5.3848 0 9.75 4.36522 9.75 9.75zm-18 0c0-4.55635 3.69365-8.25 8.25-8.25 4.5563 0 8.25 3.69365 8.25 8.25 0 4.3035-3.2951 7.8374-7.5 8.2164v-2.0699c1.1543-.3265 2-1.3877 2-2.6465 0-1.5188-1.2312-2.75-2.75-2.75s-2.75 1.2312-2.75 2.75c0 1.2588.8457 2.32 2 2.6465v2.0699c-4.20487-.379-7.5-3.9129-7.5-8.2164z" /></svg>