<svg viewBox="0 0 512 512" version="1.1" xmlns="http://www.w3.org/2000/svg"><path d="m256 336c-91.616 0-193.792-15.968-248.416-56.832-4.768 7.68-7.584 15.936-7.584 24.832 0 60.384 118.208 93.088 240 95.744v80.256c0 8.832 7.168 16 16 16s16-7.168 16-16v-80.256c121.792-2.656 240-35.36 240-95.744 0-8.896-2.816-17.152-7.584-24.832-54.624 40.864-156.8 56.832-248.416 56.832z"/><path d="m256 176c46.24 0 96-15.008 96-48 0-29.184-38.976-44.256-80-47.36v-48.64c0-8.832-7.168-16-16-16s-16 7.168-16 16v48.64c-41.024 3.104-80 18.176-80 47.36 0 32.992 49.76 48 96 48z"/><path d="m256 304c127.232 0 256-32.96 256-96 0-41.152-55.04-69.408-128.576-84.128.096 1.408.576 2.688.576 4.128 0 47.84-51.424 80-128 80s-128-32.16-128-80c0-1.44.48-2.72.576-4.128-73.536 14.72-128.576 42.976-128.576 84.128 0 63.04 128.768 96 256 96z"/><g/><g/><g/><g/><g/><g/><g/><g/><g/><g/><g/><g/><g/><g/><g/></svg>