<svg version="1.1" xmlns="http://www.w3.org/2000/svg" viewBox="0 0 512 512"><g><path d="M477.81,224.54a221.608,221.608,0,0,0-42.72-103.13,32,32,0,0,0-44.5-44.5A221.608,221.608,0,0,0,287.46,34.19a31.99,31.99,0,0,0-62.92,0A221.608,221.608,0,0,0,121.41,76.91a32,32,0,0,0-44.5,44.5A221.608,221.608,0,0,0,34.19,224.54a31.99,31.99,0,0,0,0,62.92A221.608,221.608,0,0,0,76.91,390.59a32,32,0,0,0,44.5,44.5,221.608,221.608,0,0,0,103.13,42.72,31.99,31.99,0,0,0,62.92,0,221.608,221.608,0,0,0,103.13-42.72,32,32,0,0,0,44.5-44.5,221.608,221.608,0,0,0,42.72-103.13,31.99,31.99,0,0,0,0-62.92ZM32.45,270.1a15.989,15.989,0,0,1,0-28.2c-.29,4.68-.45,9.37-.45,14.1S32.16,265.42,32.45,270.1ZM420.05,91.94a16.068,16.068,0,0,1,4,15.97q-4.65-5.28-9.66-10.3T404.1,87.96A16.035,16.035,0,0,1,420.05,91.94ZM256,24a16.022,16.022,0,0,1,14.1,8.45c-4.68-.29-9.37-.45-14.1-.45s-9.42.16-14.1.45A16.022,16.022,0,0,1,256,24ZM91.94,91.95a16.057,16.057,0,0,1,15.96-3.99q-5.265,4.65-10.29,9.65T87.96,107.9A16.035,16.035,0,0,1,91.94,91.95Zm.01,328.11a16.068,16.068,0,0,1-4-15.97q4.65,5.28,9.66,10.3t10.29,9.65A16.035,16.035,0,0,1,91.95,420.06ZM256,488a16.022,16.022,0,0,1-14.1-8.45c4.68.29,9.37.45,14.1.45s9.42-.16,14.1-.45A16.022,16.022,0,0,1,256,488Zm164.06-67.95a16.068,16.068,0,0,1-15.97,4q5.28-4.65,10.3-9.66t9.65-10.29A16.035,16.035,0,0,1,420.06,420.05ZM256,464C141.31,464,48,370.69,48,256S141.31,48,256,48s208,93.31,208,208S370.69,464,256,464ZM479.55,270.1c.29-4.68.45-9.37.45-14.1s-.16-9.42-.45-14.1a15.989,15.989,0,0,1,0,28.2Z"/><path d="M256,64C150.131,64,64,150.131,64,256s86.131,192,192,192,192-86.131,192-192S361.869,64,256,64Zm0,368c-97.047,0-176-78.953-176-176S158.953,80,256,80s176,78.953,176,176S353.047,432,256,432Z"/><path d="M256,168a88,88,0,1,0,88,88A88.1,88.1,0,0,0,256,168Zm0,160a72,72,0,1,1,72-72A72.081,72.081,0,0,1,256,328Z"/></g></svg>
