<svg version="1.1" xmlns="http://www.w3.org/2000/svg" viewBox="0 0 512 512" >
<g>
		<path d="M79.945,55.333l-0.118,0.115c0.167-11.795-5.381-25.132-16.045-35.797C46.111,1.979,21.093-1.67,7.922,11.512
			C-5.262,24.675-1.615,49.68,16.069,67.362c10.666,10.664,23.995,16.214,35.786,16.055l-0.215,0.212l149.224,153.979l33.58-32.544
			L79.945,55.333z"/>
		<polygon points="311.802,280.037 276.892,316.059 463.302,508.408 504.712,466.995 		"/>
		<path d="M504.078,11.512c-13.171-13.183-38.188-9.534-55.859,8.139c-10.664,10.665-16.211,24.002-16.045,35.797l-0.118-0.115
			L7.289,466.995l41.41,41.413l411.662-424.78l-0.215-0.212c11.79,0.158,25.12-5.391,35.785-16.055
			C513.615,49.68,517.261,24.675,504.078,11.512z"/>
</g>
</svg>
