<svg viewBox="0 0 509.788 509.788" version="1.1" xmlns="http://www.w3.org/2000/svg"><g><path d="m509.788 284.781c0-21.138-14.573-38.86-34.22-43.691-5.302-27.087-15.527-52.814-30.233-76.105 21.448-16.926 22.856-48.328 4.01-67.189-17.579-17.565-46.079-17.565-63.645 0-1.381 1.381-1.928 2.077-2.194 2.378-25.573-17.912-54.432-30.185-85.026-36.173-11.621-45.359-75.779-45.329-87.383 0-28.824 5.642-56.107 16.861-80.555 33.12-17.314-20.256-47.712-20.981-66.062-2.647-17.565 17.58-17.565 46.08 0 63.644.765.765 1.545 1.5 2.354 2.175.096.083.196.159.292.242-16.675 25.074-28.038 53.133-33.531 82.775-45.28 12.06-44.608 76.303.917 87.404 12.441 59.846 48.121 109.82 95.885 141.567l11.305 7.514 8.602-10.5c11.917-14.547 26.467-26.218 42.678-34.571l-40.57-81.156c-21.608 10.595-41.293 24.389-58.702 41.158-13.882-20.317-23.826-43.152-29.228-67.352 33.963-16.438 33.444-65.591-.826-81.318 5.55-27.435 16.878-52.797 32.653-74.764 24.836.004 44.994-20.11 44.989-44.989 21.447-15.402 46.134-26.56 72.825-32.244 16.088 34.135 65.254 34.115 81.328 0 28.472 6.064 54.661 18.358 77.072 35.387-.101 24.214 18.948 44.095 43.044 45.128 14.213 20.671 24.545 44.203 29.942 69.544-34.139 16.09-34.114 65.262.008 81.332-5.297 24.913-15.402 48.42-29.651 69.274-17.41-16.769-37.095-30.562-58.703-41.157l-40.571 81.157c16.212 8.354 30.762 20.025 42.679 34.571l8.603 10.5c44.364-25.782 94.81-80.414 107.643-151.311 19.672-4.812 34.271-22.546 34.271-43.703z"/><path d="m180.213 342.087 40.952 81.919c21.999-5.633 45.238-5.635 67.246 0l40.952-81.919c-48.272-16.403-100.796-16.432-149.15 0z"/></g></svg>