<svg version="1.1" xmlns="http://www.w3.org/2000/svg" viewBox="0 0 512 512" >
<g>
	<g>
		<path d="M476.995,261.309H30.631C13.714,261.308,0,275.022,0,291.938v106.266c0,13.659,11.073,24.73,24.73,24.73h458.335
			c13.659,0,24.73-11.073,24.73-24.73V292.111h0.001C507.797,275.099,494.006,261.309,476.995,261.309z M428.821,336.09H79.158
			c-6.701,0-12.133-5.36-12.133-12.062c0-6.701,5.431-12.062,12.133-12.062h349.663c6.701,0,12.133,5.36,12.133,12.062
			C440.954,330.73,435.523,336.09,428.821,336.09z"/>
		<path d="M511.22,102.36c-2.936-9.846-13.294-15.452-23.145-12.513l-201.241,60.006c3.185,5.08,5.698,10.607,7.455,16.499
			c1.894,6.347,2.822,12.825,2.818,19.266l201.6-60.113C508.553,122.569,514.154,112.207,511.22,102.36z"/>
	</g>
		<circle cx="230.149" cy="185.484" r="37.167"/>
</g>
</svg>
