<svg viewBox="-78 0 511 511.99957" version="1.1" xmlns="http://www.w3.org/2000/svg"><path d="m355.078125 494.695312-50.980469-328c-1.132812-7.304687-7.425781-12.695312-14.820312-12.695312h-220.402344c-7.355469 0-13.625 5.332031-14.804688 12.59375l-53.375 327.996094c-.890624 5.484375 1.3125 11.109375 5.949219 14.523437 2.648438 1.945313 5.90625 2.886719 9.191407 2.886719h324.074218c3.273438 0 6.515625-.929688 9.15625-2.855469 4.636719-3.386719 6.863282-8.980469 6.011719-14.449219zm0 0"/><path d="m204.46875 81.402344h-11.589844v-34.671875l27.332032-19.523438c6.738281-4.816406 8.300781-14.183593 3.484374-20.921875-4.8125-6.742187-14.183593-8.304687-20.925781-3.488281l-24.894531 17.78125-24.890625-17.78125c-6.742187-4.816406-16.113281-3.253906-20.925781 3.488281-4.816406 6.738282-3.253906 16.105469 3.484375 20.921875l27.332031 19.523438v34.671875h-11.589844c-24.722656 0-42.691406 17.140625-45.867187 42.597656h144.917969c-3.175782-25.457031-21.144532-42.597656-45.867188-42.597656zm0 0"/></svg>