<svg version="1.1" xmlns="http://www.w3.org/2000/svg" viewBox="0 0 304.377 304.377" >
<g>
	<path d="M122.384,152.026l37.884-54.628c5.125-7.389,13.261-12.055,22.135-12.838c-0.179-1.883-0.745-3.758-1.76-5.5
		c-3.747-6.431-11.998-8.608-18.429-4.861l-9.053,5.274c2.12-3.984,2.205-8.935-0.234-13.121c-3.747-6.431-11.998-8.608-18.43-4.861
		L53.459,108.7l8.958-22.765c2.726-6.927-0.68-14.752-7.607-17.475c-6.926-2.726-14.75,0.68-17.475,7.606
		c0,0-17.355,43.777-22.99,58.428c-5.595,14.546-9.317,25.256-2.266,37.36l16.269,27.926c8.311,14.265,25.056,20.623,40.277,16.456
		l-3.003-48.307c-1.034-16.627,11.584-30.926,28.215-31.959C105.961,135.215,116.972,141.773,122.384,152.026z"/>
	<path d="M221.154,75.008c2.931,2.929,7.678,2.928,10.607,0l36.723-36.723c2.929-2.93,2.929-7.678,0-10.607
		c-2.93-2.928-7.678-2.928-10.607,0L221.154,64.4C218.225,67.33,218.225,72.078,221.154,75.008z"/>
	<path d="M199.455,52.123c3.939,1.255,8.163-0.918,9.422-4.871l11.932-37.473c1.257-3.946-0.924-8.165-4.871-9.422
		c-3.948-1.262-8.165,0.924-9.422,4.871l-11.932,37.473C193.327,46.648,195.508,50.866,199.455,52.123z"/>
	<path d="M295.805,80.225c-1.257-3.946-5.473-6.13-9.422-4.871L248.91,87.285c-4.236,1.349-6.492,6.151-4.48,10.374
		c0.311,0.468,0.611,0.943,0.895,1.428c1.906,2.398,5.107,3.456,8.136,2.491l37.473-11.932
		C294.881,88.39,297.061,84.172,295.805,80.225z"/>
	<path d="M242.378,179.405c-4.431-3.073-9.979-3.467-14.679-1.424l14.322-20.653c4.767-6.874,3.059-16.311-3.815-21.077
		c-4.432-3.074-9.98-3.467-14.68-1.424l8.225-11.86c4.767-6.874,3.059-16.311-3.815-21.078c-6.864-4.761-16.304-3.068-21.077,3.815
		l-6.71,9.675c0.264-5.065-2.004-10.146-6.479-13.249c-6.867-4.762-16.306-3.065-21.077,3.815l-60.064,86.611l-1.706-27.44
		c-0.519-8.348-7.707-14.697-16.056-14.176c-8.349,0.518-14.696,7.708-14.176,16.056c0,0,3.085,52.834,4.378,70.427
		c1.313,17.867,2.524,30.148,15.46,39.118l29.846,20.698c6.955,4.823,14.918,7.137,22.802,7.137c12.72,0,25.239-6.02,33.021-17.241
		c13.011-18.761,48.68-70.196,60.094-86.654C250.96,193.609,249.252,184.172,242.378,179.405z"/>
</g>
</svg>
