<svg version="1.1" xmlns="http://www.w3.org/2000/svg" viewBox="0 0 468.575 468.575" >
<g>
	<path d="M226.597,122.206c-7.035-1.948-13.98-3.925-20.893-5.911l-8.578,14.828c-9.139,5.526-15.31,15.466-15.31,26.928
		c0,8.25,3.236,15.693,8.417,21.312v270.141h24.203V189.504c16.932-0.563,30.513-14.389,30.513-31.455
		c0-12.884-7.738-23.92-18.809-28.825l3.572-6.171C228.67,122.76,227.643,122.486,226.597,122.206z M214.436,167.399
		c-0.358,0.038-0.673,0.21-1.054,0.21c-5.282,0-9.568-4.286-9.568-9.568s4.286-9.572,9.568-9.572c0.381,0,0.695,0.172,1.054,0.214
		c4.765,0.549,8.518,4.444,8.518,9.357C222.946,162.957,219.201,166.858,214.436,167.399z"/>
	<polygon points="265.723,27.364 235.271,19.072 229.202,41.386 259.752,49.344 	"/>
	<path d="M225.358,44.445c-0.898-0.234-1.805-0.353-2.727-0.353c-4.875,0-9.145,3.304-10.367,8.031
		c-0.613,2.322-0.254,4.681,0.673,6.847c9.562,2.513,19.215,5.102,29.013,7.818c7.635,2.112,15.281,4.286,22.907,6.494
		c2.208-1.422,3.919-3.597,4.616-6.268c0.737-2.779,0.32-5.665-1.126-8.137c-1.451-2.477-3.779-4.232-6.557-4.958l-3.073-0.801
		l-30.551-7.951L225.358,44.445z"/>
	<path d="M62.971,64.639c38.586,15.387,89.422,32.264,144.761,48.153c6.586,1.894,13.206,3.775,19.911,5.639
		c1.373,0.382,2.729,0.735,4.098,1.118c95.87,26.389,181.792,43.385,219.664,43.385c15.364,0,16.935-2.905,17.104-3.489
		c2.568-9.237-68.291-43.007-203.297-81.98c-1.01-0.288-2.04-0.587-3.058-0.877c-5.322-1.533-10.74-3.063-16.263-4.608
		c-1.671-0.463-3.294-0.934-4.98-1.399c-7.586-2.104-15.072-4.119-22.524-6.105c-1.805-0.479-3.603-0.952-5.402-1.431
		c-0.996-0.256-1.992-0.525-2.981-0.786C125.185,40.025,51.446,26.078,17.143,26.078c-15.365,0-16.943,2.905-17.108,3.484
		C-0.226,30.481-0.616,39.29,62.971,64.639z"/>
</g>
</svg>
