<svg version="1.1" xmlns="http://www.w3.org/2000/svg" viewBox="0 0 288.567 288.567" >
<g>
	<g>
		<path d="M170.285,78.671l-0.699,0.461c-0.134-0.202-13.69-20.487-30.092-31.035c-11.606-7.459-29.184-11.586-38.58-13.373
			c-0.233,0.642-0.492,1.274-0.699,1.916c-0.813,2.571-1.365,5.228-1.613,7.943c-1.553,8.177-3.728,21.182-4.145,31.835
			c-0.663,16.92-7.964,35.175-15.594,45.457c-7.633,10.281-39.154,39.481-50.767,51.763c-11.617,12.277-12.614,22.561-7.635,27.868
			l5.424,3.553c6.351,3.536,16.099,0.077,25.187-14.173c9.087-14.245,29.761-51.916,37.891-61.816
			c8.122-9.898,24.058-21.411,40.314-26.16c16.252-4.749,35.623-19.837,35.623-19.837l-0.041-0.031
			C166.764,81.742,168.571,80.261,170.285,78.671z"/>
		<path d="M155.931,26.693c-11.692-7.519-29.453-11.646-38.792-13.417c-4.453,3.552-8.357,7.679-11.438,12.244
			c10.548,2.175,27.276,6.558,39.176,14.211c15.238,9.792,27.682,26.331,31.674,31.982c3.599-4.831,6.369-10.292,8.053-16.029
			C180.704,50.251,169.259,35.255,155.931,26.693z"/>
		<path d="M161.311,18.315c10.222,6.568,19.195,16.177,25.192,23.499c0.295-33.419-23.219-45.816-44.603-40.706
			c-4.321,1.033-8.611,2.597-12.725,4.599C139.229,8.182,151.809,12.205,161.311,18.315z"/>
	</g>
	<g>
		<path d="M270.166,100.129l-0.279,0.792c-0.228-0.08-23.297-8.044-42.735-6.524c-13.753,1.077-30.25,8.428-38.81,12.684
			c0.191,0.652,0.367,1.31,0.596,1.947c0.906,2.545,2.076,4.989,3.516,7.301c3.707,7.449,9.838,19.121,15.948,27.867
			c9.704,13.882,14.929,32.823,15.074,45.635c0.14,12.811-7.317,55.126-9.146,71.924c-1.822,16.803,3.609,25.601,10.776,26.812
			l6.468-0.456c7.207-1.021,12.867-9.673,11.495-26.512c-1.372-16.84-7.685-59.342-7.198-72.142
			c0.482-12.795,6.214-31.603,16.285-45.216c10.077-13.613,16.379-37.339,16.379-37.339h-0.057
			C269.218,104.697,269.762,102.426,270.166,100.129z"/>
		<path d="M227.301,67.404c-13.856,1.087-30.504,8.536-39.012,12.774c-1.403,5.52-2.015,11.167-1.704,16.671
			c9.715-4.647,25.689-11.268,39.789-12.378c18.056-1.414,37.977,4.238,44.568,6.323c-0.052-6.025-1.155-12.042-3.278-17.632
			C261.28,71.189,243.089,66.168,227.301,67.404z"/>
		<path d="M226.519,57.477c12.117-0.947,25.067,1.284,34.274,3.485c-19.972-26.794-46.194-22.447-60.139-5.453
			c-2.817,3.438-5.292,7.281-7.358,11.354C202.809,62.759,215.257,58.357,226.519,57.477z"/>
	</g>
</g>
</svg>
