<svg viewBox="0 0 512 512" version="1.1" xmlns="http://www.w3.org/2000/svg"><g><path d="m31.901 401.907c-34.399 17.344-42.451 62.94-16.81 91.069 27.609 30.283 77.27 23.461 95.369-13.7 15.33-31.59 34.199-62.569 56.159-92.259l-41.669-41.679c-28.55 20.8-59.789 39.79-93.049 56.569z"/><path d="m209.498 271.07c-10.013 9.659-28.206 29.787-60.529 55.859l36.199 36.209c27.193-33.34 50.625-55.35 55.729-60.659-11.835-8.149-22.66-18.717-31.399-31.409z"/><path d="m341.196 239.98-19.05-50.169-50.129-19.03c-6.18-2.34-11.09-7.24-13.47-13.45l-18.48-48.649c-52.495 93.472-13.988 186.827 79.409 186.827 26.959.01 56.129-8.05 83.829-23.609l-48.639-18.48c-6.17-2.32-11.09-7.23-13.47-13.44z"/><path d="m285.414 143.567c-.009-.023-.009-.025 0 0z"/><path d="m420.735 160.441-19.05-50.149-50.139-19.05c-6.16-2.33-11.07-7.22-13.45-13.41l-19.23-50.609c-22.131 13.449-42.129 31.29-58.219 51.169 20.784 54.693 24.329 64.024 24.794 65.247-.011-.028-.021-.054-.027-.072.01.027.032.085.085.223-.002-.006-.006-.015-.01-.025.013.034.016.042.012.032.002.005.003.009.005.014l42.089 15.98c3.989 2.152 16.506 3.419 21.51 16.5 14.75 38.846 18.22 47.984 18.902 49.781-.002-.005-.003-.008-.004-.01.002.005.006.016.011.03-.002-.005-.004-.012-.006-.016.004.01.008.021.011.03-.002-.005-.004-.01-.006-.015.005.013.011.03.02.053 0 .001.001.003.002.004 0-.001 0-.002-.001-.002.003.009.007.019.011.029-.004-.009-.007-.017-.01-.027.005.014.011.029.017.045.002.006.004.011.006.017-.002-.005-.004-.01-.006-.015.016.043.037.099.064.169-.01-.027-.021-.057-.033-.087.021.055.037.098.048.127-.004-.012-.009-.024-.015-.038.011.03.022.059.036.094.003.007.002.006 0 0l42.109 15.99 23.33 8.86c19.672-15.89 37.579-35.886 51.159-58.209l-50.559-19.21c-6.166-2.33-11.086-7.23-13.456-13.45z"/><path d="m364.986 64.141c.008.021.015.04.022.058 0-.001 0-.001-.001-.002-.007-.018-.015-.039-.021-.056z"/><path d="m483.544 28.433c-24.693-24.679-59.8-31.899-94.639-26.979-14.52 2.03-29.02 6.1-43.159 12.02 15.069 39.683 18.509 48.743 19.158 50.454.006.017.015.041.026.069-.006-.017-.012-.032-.017-.046.043.114.074.196.094.248 0 .001.001.002.001.003 0 0 0 0 0-.001 0 .001.001.001.001.002.008.02.015.038.023.061.001.004.003.008.004.01.007.003.012.004.018.007.006.002.009.003.017.006.002.001.005.002.008.003.011.004.022.008.032.012.006.002.011.004.018.007-.002-.001-.005-.002-.008-.003.011.004.023.009.034.013.015.006.03.011.048.018.079.03.136.052.173.066-.01-.004-.02-.008-.031-.012 1.6.608 10.413 3.956 49.83 18.932 6.15 2.33 11.07 7.22 13.45 13.4 14.756 38.863 18.228 48.008 18.912 49.81.003.009.01.027.021.055 0-.001 0-.001-.001-.002.001.003.002.006.003.008-.001-.002-.002-.004-.002-.006.007.017.014.036.021.057 0-.001-.001-.003-.001-.004.006.017.012.031.018.047.022.059.05.132.089.235.007.003.012.005.019.007-.002-.001-.003-.001-.005-.002.005.002.009.003.015.006-.002 0-.004-.001-.005-.002.057.021.104.04.146.056-.006-.002-.012-.004-.018-.007.017.007.036.014.056.021-.008-.003-.016-.006-.023-.009.045.017.084.032.114.043-.008-.003-.016-.006-.024-.009 1.515.576 10.248 3.895 50.535 19.205 5.92-14.15 10-28.659 12.03-43.169 5.359-38.26-4.221-71.87-26.981-94.63z"/><path d="m365.163 64.321c-.003-.001-.006-.002-.009-.003-.008-.003-.019-.007-.026-.01.011.004.023.008.035.013z"/><path d="m447.614 146.735c-.005-.014-.012-.032-.018-.048-.005-.014-.012-.031-.016-.043.01.028.022.059.034.091z"/></g></svg>