<svg version="1.1" xmlns="http://www.w3.org/2000/svg" viewBox="0 0 47.089 47.089" >
<path id="XMLID_74_" d="M42.527,16.856c1.885-0.603,3.431-1.297,4.563-2.055v21.678c0,3.516-10.541,6.366-23.545,6.366
	C10.541,42.845,0,39.995,0,36.479V14.801c1.132,0.758,2.678,1.452,4.563,2.055v6.891c0,0.829,0.672,1.5,1.5,1.5s1.5-0.671,1.5-1.5
	v-6.075c4.02,0.934,9.02,1.523,14.481,1.615V29.81c0,0.109,0.013,0.214,0.035,0.317c0.485-0.008,0.973-0.014,1.465-0.014
	c0.492,0,0.98,0.005,1.465,0.013c0.022-0.102,0.035-0.208,0.035-0.317V19.287c5.462-0.092,10.462-0.681,14.482-1.615v6.075
	c0,0.829,0.672,1.5,1.5,1.5s1.5-0.671,1.5-1.5V16.856z M23.545,16.976c13.003,0,23.545-2.85,23.545-6.366
	c0-3.516-10.541-6.366-23.545-6.366C10.541,4.244,0,7.094,0,10.61C0,14.126,10.541,16.976,23.545,16.976z"/>
</svg>
